<?xml version="1.0" encoding="UTF-8" standalone="no"?>
<!DOCTYPE svg PUBLIC "-//W3C//DTD SVG 1.1//EN"
 "http://www.w3.org/Graphics/SVG/1.1/DTD/svg11.dtd">
<!-- Generated by graphviz version 14.0.5 (20251129.0259)
 -->
<!-- Title: PeacePipeline Pages: 1 -->
<svg width="732pt" height="2641pt"
 viewBox="0.00 0.00 732.00 2641.00" xmlns="http://www.w3.org/2000/svg" xmlns:xlink="http://www.w3.org/1999/xlink">
<g id="graph0" class="graph" transform="scale(1 1) rotate(0) translate(4 2637)">
<title>PeacePipeline</title>
<polygon fill="white" stroke="none" points="-4,4 -4,-2637 728,-2637 728,4 -4,4"/>
<g id="clust1" class="cluster">
<title>cluster_ingest</title>
<polygon fill="lightgrey" stroke="lightgrey" points="253,-1894.5 253,-2625 471,-2625 471,-1894.5 253,-1894.5"/>
<text xml:space="preserve" text-anchor="middle" x="362" y="-2607.7" font-family="Times,serif" font-size="14.00">Data Preparation</text>
</g>
<g id="clust2" class="cluster">
<title>cluster_vector</title>
<polygon fill="lightblue" stroke="lightblue" points="253,-1454 253,-1857.5 471,-1857.5 471,-1454 253,-1454"/>
<text xml:space="preserve" text-anchor="middle" x="362" y="-1840.2" font-family="Times,serif" font-size="14.00">Vector Store Ingestion</text>
</g>
<g id="clust3" class="cluster">
<title>cluster_kg</title>
<polygon fill="lightyellow" stroke="lightyellow" points="253,-1013.5 253,-1417 471,-1417 471,-1013.5 253,-1013.5"/>
<text xml:space="preserve" text-anchor="middle" x="362" y="-1399.7" font-family="Times,serif" font-size="14.00">Knowledge Graph Extraction</text>
</g>
<g id="clust4" class="cluster">
<title>cluster_rag</title>
<polygon fill="lightgreen" stroke="lightgreen" points="8,-464 8,-976.5 716,-976.5 716,-464 8,-464"/>
<text xml:space="preserve" text-anchor="middle" x="362" y="-959.2" font-family="Times,serif" font-size="14.00">RAG Question Answering</text>
</g>
<g id="clust5" class="cluster">
<title>cluster_eval</title>
<polygon fill="lightpink" stroke="lightpink" points="253,-8 253,-411.5 471,-411.5 471,-8 253,-8"/>
<text xml:space="preserve" text-anchor="middle" x="362" y="-394.2" font-family="Times,serif" font-size="14.00">Evaluation (DeepEval)</text>
</g>
<!-- ScrapePDFs -->
<g id="node1" class="node">
<title>ScrapePDFs</title>
<path fill="none" stroke="black" d="M450.8,-2592.5C450.8,-2592.5 273.2,-2592.5 273.2,-2592.5 267.2,-2592.5 261.2,-2586.5 261.2,-2580.5 261.2,-2580.5 261.2,-2568.5 261.2,-2568.5 261.2,-2562.5 267.2,-2556.5 273.2,-2556.5 273.2,-2556.5 450.8,-2556.5 450.8,-2556.5 456.8,-2556.5 462.8,-2562.5 462.8,-2568.5 462.8,-2568.5 462.8,-2580.5 462.8,-2580.5 462.8,-2586.5 456.8,-2592.5 450.8,-2592.5"/>
<text xml:space="preserve" text-anchor="middle" x="362" y="-2577.55" font-family="Times,serif" font-size="11.00">PDF Finder (Selenium)</text>
<text xml:space="preserve" text-anchor="middle" x="362" y="-2564.05" font-family="Times,serif" font-size="11.00">Collect PDF URLs</text>
</g>
<!-- DownloadPDFs -->
<g id="node2" class="node">
<title>DownloadPDFs</title>
<path fill="none" stroke="black" d="M450.8,-2483.5C450.8,-2483.5 273.2,-2483.5 273.2,-2483.5 267.2,-2483.5 261.2,-2477.5 261.2,-2471.5 261.2,-2471.5 261.2,-2459.5 261.2,-2459.5 261.2,-2453.5 267.2,-2447.5 273.2,-2447.5 273.2,-2447.5 450.8,-2447.5 450.8,-2447.5 456.8,-2447.5 462.8,-2453.5 462.8,-2459.5 462.8,-2459.5 462.8,-2471.5 462.8,-2471.5 462.8,-2477.5 456.8,-2483.5 450.8,-2483.5"/>
<text xml:space="preserve" text-anchor="middle" x="362" y="-2468.55" font-family="Times,serif" font-size="11.00">PDF Downloader</text>
<text xml:space="preserve" text-anchor="middle" x="362" y="-2455.05" font-family="Times,serif" font-size="11.00">(Multithreaded)</text>
</g>
<!-- ScrapePDFs&#45;&gt;DownloadPDFs -->
<g id="edge1" class="edge">
<title>ScrapePDFs&#45;&gt;DownloadPDFs</title>
<path fill="none" stroke="black" d="M362,-2556.31C362,-2539.77 362,-2514.48 362,-2494.94"/>
<polygon fill="black" stroke="black" points="365.5,-2495.16 362,-2485.16 358.5,-2495.16 365.5,-2495.16"/>
</g>
<!-- DetectImagePDF -->
<g id="node3" class="node">
<title>DetectImagePDF</title>
<path fill="none" stroke="black" d="M450.8,-2374.5C450.8,-2374.5 273.2,-2374.5 273.2,-2374.5 267.2,-2374.5 261.2,-2368.5 261.2,-2362.5 261.2,-2362.5 261.2,-2350.5 261.2,-2350.5 261.2,-2344.5 267.2,-2338.5 273.2,-2338.5 273.2,-2338.5 450.8,-2338.5 450.8,-2338.5 456.8,-2338.5 462.8,-2344.5 462.8,-2350.5 462.8,-2350.5 462.8,-2362.5 462.8,-2362.5 462.8,-2368.5 456.8,-2374.5 450.8,-2374.5"/>
<text xml:space="preserve" text-anchor="middle" x="362" y="-2359.55" font-family="Times,serif" font-size="11.00">Detect Image&#45;based PDFs</text>
<text xml:space="preserve" text-anchor="middle" x="362" y="-2346.05" font-family="Times,serif" font-size="11.00">(PyMuPDF text check)</text>
</g>
<!-- DownloadPDFs&#45;&gt;DetectImagePDF -->
<g id="edge2" class="edge">
<title>DownloadPDFs&#45;&gt;DetectImagePDF</title>
<path fill="none" stroke="black" d="M362,-2447.31C362,-2430.77 362,-2405.48 362,-2385.94"/>
<polygon fill="black" stroke="black" points="365.5,-2386.16 362,-2376.16 358.5,-2386.16 365.5,-2386.16"/>
</g>
<!-- OCRPDFs -->
<g id="node4" class="node">
<title>OCRPDFs</title>
<path fill="none" stroke="black" d="M450.8,-2265.5C450.8,-2265.5 273.2,-2265.5 273.2,-2265.5 267.2,-2265.5 261.2,-2259.5 261.2,-2253.5 261.2,-2253.5 261.2,-2241.5 261.2,-2241.5 261.2,-2235.5 267.2,-2229.5 273.2,-2229.5 273.2,-2229.5 450.8,-2229.5 450.8,-2229.5 456.8,-2229.5 462.8,-2235.5 462.8,-2241.5 462.8,-2241.5 462.8,-2253.5 462.8,-2253.5 462.8,-2259.5 456.8,-2265.5 450.8,-2265.5"/>
<text xml:space="preserve" text-anchor="middle" x="362" y="-2250.55" font-family="Times,serif" font-size="11.00">OCR PDFs</text>
<text xml:space="preserve" text-anchor="middle" x="362" y="-2237.05" font-family="Times,serif" font-size="11.00">(pdf2image + Tesseract)</text>
</g>
<!-- DetectImagePDF&#45;&gt;OCRPDFs -->
<g id="edge3" class="edge">
<title>DetectImagePDF&#45;&gt;OCRPDFs</title>
<path fill="none" stroke="black" d="M362,-2338.31C362,-2321.77 362,-2296.48 362,-2276.94"/>
<polygon fill="black" stroke="black" points="365.5,-2277.16 362,-2267.16 358.5,-2277.16 365.5,-2277.16"/>
</g>
<!-- PrepareTexts -->
<g id="node5" class="node">
<title>PrepareTexts</title>
<path fill="none" stroke="black" d="M450.8,-2156.5C450.8,-2156.5 273.2,-2156.5 273.2,-2156.5 267.2,-2156.5 261.2,-2150.5 261.2,-2144.5 261.2,-2144.5 261.2,-2132.5 261.2,-2132.5 261.2,-2126.5 267.2,-2120.5 273.2,-2120.5 273.2,-2120.5 450.8,-2120.5 450.8,-2120.5 456.8,-2120.5 462.8,-2126.5 462.8,-2132.5 462.8,-2132.5 462.8,-2144.5 462.8,-2144.5 462.8,-2150.5 456.8,-2156.5 450.8,-2156.5"/>
<text xml:space="preserve" text-anchor="middle" x="362" y="-2141.55" font-family="Times,serif" font-size="11.00">Store OCR → .txt</text>
<text xml:space="preserve" text-anchor="middle" x="362" y="-2128.05" font-family="Times,serif" font-size="11.00">Move originals to discarded/</text>
</g>
<!-- OCRPDFs&#45;&gt;PrepareTexts -->
<g id="edge4" class="edge">
<title>OCRPDFs&#45;&gt;PrepareTexts</title>
<path fill="none" stroke="black" d="M362,-2229.31C362,-2212.77 362,-2187.48 362,-2167.94"/>
<polygon fill="black" stroke="black" points="365.5,-2168.16 362,-2158.16 358.5,-2168.16 365.5,-2168.16"/>
</g>
<!-- Chunking -->
<g id="node6" class="node">
<title>Chunking</title>
<path fill="none" stroke="black" d="M450.8,-2047.5C450.8,-2047.5 273.2,-2047.5 273.2,-2047.5 267.2,-2047.5 261.2,-2041.5 261.2,-2035.5 261.2,-2035.5 261.2,-2023.5 261.2,-2023.5 261.2,-2017.5 267.2,-2011.5 273.2,-2011.5 273.2,-2011.5 450.8,-2011.5 450.8,-2011.5 456.8,-2011.5 462.8,-2017.5 462.8,-2023.5 462.8,-2023.5 462.8,-2035.5 462.8,-2035.5 462.8,-2041.5 456.8,-2047.5 450.8,-2047.5"/>
<text xml:space="preserve" text-anchor="middle" x="362" y="-2032.55" font-family="Times,serif" font-size="11.00">Text Chunking</text>
<text xml:space="preserve" text-anchor="middle" x="362" y="-2019.05" font-family="Times,serif" font-size="11.00">(RecursiveCharacterTextSplitter)</text>
</g>
<!-- PrepareTexts&#45;&gt;Chunking -->
<g id="edge5" class="edge">
<title>PrepareTexts&#45;&gt;Chunking</title>
<path fill="none" stroke="black" d="M362,-2120.31C362,-2103.77 362,-2078.48 362,-2058.94"/>
<polygon fill="black" stroke="black" points="365.5,-2059.16 362,-2049.16 358.5,-2059.16 365.5,-2059.16"/>
</g>
<!-- SaveChunks -->
<g id="node7" class="node">
<title>SaveChunks</title>
<path fill="none" stroke="black" d="M450.8,-1938.5C450.8,-1938.5 273.2,-1938.5 273.2,-1938.5 267.2,-1938.5 261.2,-1932.5 261.2,-1926.5 261.2,-1926.5 261.2,-1914.5 261.2,-1914.5 261.2,-1908.5 267.2,-1902.5 273.2,-1902.5 273.2,-1902.5 450.8,-1902.5 450.8,-1902.5 456.8,-1902.5 462.8,-1908.5 462.8,-1914.5 462.8,-1914.5 462.8,-1926.5 462.8,-1926.5 462.8,-1932.5 456.8,-1938.5 450.8,-1938.5"/>
<text xml:space="preserve" text-anchor="middle" x="362" y="-1923.55" font-family="Times,serif" font-size="11.00">Save Chunk Dataset</text>
<text xml:space="preserve" text-anchor="middle" x="362" y="-1910.05" font-family="Times,serif" font-size="11.00">(document_chunks.pkl)</text>
</g>
<!-- Chunking&#45;&gt;SaveChunks -->
<g id="edge6" class="edge">
<title>Chunking&#45;&gt;SaveChunks</title>
<path fill="none" stroke="black" d="M362,-2011.31C362,-1994.77 362,-1969.48 362,-1949.94"/>
<polygon fill="black" stroke="black" points="365.5,-1950.16 362,-1940.16 358.5,-1950.16 365.5,-1950.16"/>
</g>
<!-- LoadChunks -->
<g id="node8" class="node">
<title>LoadChunks</title>
<path fill="none" stroke="black" d="M450.8,-1825C450.8,-1825 273.2,-1825 273.2,-1825 267.2,-1825 261.2,-1819 261.2,-1813 261.2,-1813 261.2,-1801 261.2,-1801 261.2,-1795 267.2,-1789 273.2,-1789 273.2,-1789 450.8,-1789 450.8,-1789 456.8,-1789 462.8,-1795 462.8,-1801 462.8,-1801 462.8,-1813 462.8,-1813 462.8,-1819 456.8,-1825 450.8,-1825"/>
<text xml:space="preserve" text-anchor="middle" x="362" y="-1810.05" font-family="Times,serif" font-size="11.00">Load Chunks</text>
<text xml:space="preserve" text-anchor="middle" x="362" y="-1796.55" font-family="Times,serif" font-size="11.00">(document_chunks.pkl)</text>
</g>
<!-- SaveChunks&#45;&gt;LoadChunks -->
<g id="edge24" class="edge">
<title>SaveChunks&#45;&gt;LoadChunks</title>
<path fill="none" stroke="black" d="M362,-1902.08C362,-1884.57 362,-1857.28 362,-1836.59"/>
<polygon fill="black" stroke="black" points="365.5,-1836.81 362,-1826.81 358.5,-1836.81 365.5,-1836.81"/>
</g>
<!-- InsertDocs -->
<g id="node9" class="node">
<title>InsertDocs</title>
<path fill="none" stroke="black" d="M450.8,-1716C450.8,-1716 273.2,-1716 273.2,-1716 267.2,-1716 261.2,-1710 261.2,-1704 261.2,-1704 261.2,-1692 261.2,-1692 261.2,-1686 267.2,-1680 273.2,-1680 273.2,-1680 450.8,-1680 450.8,-1680 456.8,-1680 462.8,-1686 462.8,-1692 462.8,-1692 462.8,-1704 462.8,-1704 462.8,-1710 456.8,-1716 450.8,-1716"/>
<text xml:space="preserve" text-anchor="middle" x="362" y="-1701.05" font-family="Times,serif" font-size="11.00">Insert Document Nodes</text>
<text xml:space="preserve" text-anchor="middle" x="362" y="-1687.55" font-family="Times,serif" font-size="11.00">(:Document)</text>
</g>
<!-- LoadChunks&#45;&gt;InsertDocs -->
<g id="edge7" class="edge">
<title>LoadChunks&#45;&gt;InsertDocs</title>
<path fill="none" stroke="black" d="M362,-1788.81C362,-1772.27 362,-1746.98 362,-1727.44"/>
<polygon fill="black" stroke="black" points="365.5,-1727.66 362,-1717.66 358.5,-1727.66 365.5,-1727.66"/>
</g>
<!-- EmbedChunks -->
<g id="node10" class="node">
<title>EmbedChunks</title>
<path fill="none" stroke="black" d="M450.8,-1607C450.8,-1607 273.2,-1607 273.2,-1607 267.2,-1607 261.2,-1601 261.2,-1595 261.2,-1595 261.2,-1583 261.2,-1583 261.2,-1577 267.2,-1571 273.2,-1571 273.2,-1571 450.8,-1571 450.8,-1571 456.8,-1571 462.8,-1577 462.8,-1583 462.8,-1583 462.8,-1595 462.8,-1595 462.8,-1601 456.8,-1607 450.8,-1607"/>
<text xml:space="preserve" text-anchor="middle" x="362" y="-1592.05" font-family="Times,serif" font-size="11.00">Embed + Insert Chunks</text>
<text xml:space="preserve" text-anchor="middle" x="362" y="-1578.55" font-family="Times,serif" font-size="11.00">(Neo4jVector)</text>
</g>
<!-- InsertDocs&#45;&gt;EmbedChunks -->
<g id="edge8" class="edge">
<title>InsertDocs&#45;&gt;EmbedChunks</title>
<path fill="none" stroke="black" d="M362,-1679.81C362,-1663.27 362,-1637.98 362,-1618.44"/>
<polygon fill="black" stroke="black" points="365.5,-1618.66 362,-1608.66 358.5,-1618.66 365.5,-1618.66"/>
</g>
<!-- LinkChunks -->
<g id="node11" class="node">
<title>LinkChunks</title>
<path fill="none" stroke="black" d="M450.8,-1498C450.8,-1498 273.2,-1498 273.2,-1498 267.2,-1498 261.2,-1492 261.2,-1486 261.2,-1486 261.2,-1474 261.2,-1474 261.2,-1468 267.2,-1462 273.2,-1462 273.2,-1462 450.8,-1462 450.8,-1462 456.8,-1462 462.8,-1468 462.8,-1474 462.8,-1474 462.8,-1486 462.8,-1486 462.8,-1492 456.8,-1498 450.8,-1498"/>
<text xml:space="preserve" text-anchor="middle" x="362" y="-1483.05" font-family="Times,serif" font-size="11.00">Link Document → Chunk</text>
<text xml:space="preserve" text-anchor="middle" x="362" y="-1469.55" font-family="Times,serif" font-size="11.00">(:HAS_CHUNK)</text>
</g>
<!-- EmbedChunks&#45;&gt;LinkChunks -->
<g id="edge9" class="edge">
<title>EmbedChunks&#45;&gt;LinkChunks</title>
<path fill="none" stroke="black" d="M362,-1570.81C362,-1554.27 362,-1528.98 362,-1509.44"/>
<polygon fill="black" stroke="black" points="365.5,-1509.66 362,-1499.66 358.5,-1509.66 365.5,-1509.66"/>
</g>
<!-- FetchDocs -->
<g id="node12" class="node">
<title>FetchDocs</title>
<path fill="none" stroke="black" d="M450.8,-1384.5C450.8,-1384.5 273.2,-1384.5 273.2,-1384.5 267.2,-1384.5 261.2,-1378.5 261.2,-1372.5 261.2,-1372.5 261.2,-1360.5 261.2,-1360.5 261.2,-1354.5 267.2,-1348.5 273.2,-1348.5 273.2,-1348.5 450.8,-1348.5 450.8,-1348.5 456.8,-1348.5 462.8,-1354.5 462.8,-1360.5 462.8,-1360.5 462.8,-1372.5 462.8,-1372.5 462.8,-1378.5 456.8,-1384.5 450.8,-1384.5"/>
<text xml:space="preserve" text-anchor="middle" x="362" y="-1369.55" font-family="Times,serif" font-size="11.00">Fetch All Documents</text>
<text xml:space="preserve" text-anchor="middle" x="362" y="-1356.05" font-family="Times,serif" font-size="11.00">from Neo4j</text>
</g>
<!-- LinkChunks&#45;&gt;FetchDocs -->
<g id="edge25" class="edge">
<title>LinkChunks&#45;&gt;FetchDocs</title>
<path fill="none" stroke="black" d="M362,-1461.58C362,-1444.07 362,-1416.78 362,-1396.09"/>
<polygon fill="black" stroke="black" points="365.5,-1396.31 362,-1386.31 358.5,-1396.31 365.5,-1396.31"/>
</g>
<!-- LLMExtractKG -->
<g id="node13" class="node">
<title>LLMExtractKG</title>
<path fill="none" stroke="black" d="M450.8,-1275.5C450.8,-1275.5 273.2,-1275.5 273.2,-1275.5 267.2,-1275.5 261.2,-1269.5 261.2,-1263.5 261.2,-1263.5 261.2,-1251.5 261.2,-1251.5 261.2,-1245.5 267.2,-1239.5 273.2,-1239.5 273.2,-1239.5 450.8,-1239.5 450.8,-1239.5 456.8,-1239.5 462.8,-1245.5 462.8,-1251.5 462.8,-1251.5 462.8,-1263.5 462.8,-1263.5 462.8,-1269.5 456.8,-1275.5 450.8,-1275.5"/>
<text xml:space="preserve" text-anchor="middle" x="362" y="-1253.8" font-family="Times,serif" font-size="11.00">LLM Extract Entities + Relationships</text>
</g>
<!-- FetchDocs&#45;&gt;LLMExtractKG -->
<g id="edge10" class="edge">
<title>FetchDocs&#45;&gt;LLMExtractKG</title>
<path fill="none" stroke="black" d="M362,-1348.31C362,-1331.77 362,-1306.48 362,-1286.94"/>
<polygon fill="black" stroke="black" points="365.5,-1287.16 362,-1277.16 358.5,-1287.16 365.5,-1287.16"/>
</g>
<!-- InsertEntities -->
<g id="node14" class="node">
<title>InsertEntities</title>
<path fill="none" stroke="black" d="M450.8,-1166.5C450.8,-1166.5 273.2,-1166.5 273.2,-1166.5 267.2,-1166.5 261.2,-1160.5 261.2,-1154.5 261.2,-1154.5 261.2,-1142.5 261.2,-1142.5 261.2,-1136.5 267.2,-1130.5 273.2,-1130.5 273.2,-1130.5 450.8,-1130.5 450.8,-1130.5 456.8,-1130.5 462.8,-1136.5 462.8,-1142.5 462.8,-1142.5 462.8,-1154.5 462.8,-1154.5 462.8,-1160.5 456.8,-1166.5 450.8,-1166.5"/>
<text xml:space="preserve" text-anchor="middle" x="362" y="-1144.8" font-family="Times,serif" font-size="11.00">Insert Entities</text>
</g>
<!-- LLMExtractKG&#45;&gt;InsertEntities -->
<g id="edge11" class="edge">
<title>LLMExtractKG&#45;&gt;InsertEntities</title>
<path fill="none" stroke="black" d="M362,-1239.31C362,-1222.77 362,-1197.48 362,-1177.94"/>
<polygon fill="black" stroke="black" points="365.5,-1178.16 362,-1168.16 358.5,-1178.16 365.5,-1178.16"/>
</g>
<!-- InsertRels -->
<g id="node15" class="node">
<title>InsertRels</title>
<path fill="none" stroke="black" d="M450.8,-1057.5C450.8,-1057.5 273.2,-1057.5 273.2,-1057.5 267.2,-1057.5 261.2,-1051.5 261.2,-1045.5 261.2,-1045.5 261.2,-1033.5 261.2,-1033.5 261.2,-1027.5 267.2,-1021.5 273.2,-1021.5 273.2,-1021.5 450.8,-1021.5 450.8,-1021.5 456.8,-1021.5 462.8,-1027.5 462.8,-1033.5 462.8,-1033.5 462.8,-1045.5 462.8,-1045.5 462.8,-1051.5 456.8,-1057.5 450.8,-1057.5"/>
<text xml:space="preserve" text-anchor="middle" x="362" y="-1035.8" font-family="Times,serif" font-size="11.00">Insert Relationships</text>
</g>
<!-- InsertEntities&#45;&gt;InsertRels -->
<g id="edge12" class="edge">
<title>InsertEntities&#45;&gt;InsertRels</title>
<path fill="none" stroke="black" d="M362,-1130.31C362,-1113.77 362,-1088.48 362,-1068.94"/>
<polygon fill="black" stroke="black" points="365.5,-1069.16 362,-1059.16 358.5,-1069.16 365.5,-1069.16"/>
</g>
<!-- EmbedQ -->
<g id="node16" class="node">
<title>EmbedQ</title>
<path fill="none" stroke="black" d="M450.8,-944C450.8,-944 273.2,-944 273.2,-944 267.2,-944 261.2,-938 261.2,-932 261.2,-932 261.2,-920 261.2,-920 261.2,-914 267.2,-908 273.2,-908 273.2,-908 450.8,-908 450.8,-908 456.8,-908 462.8,-914 462.8,-920 462.8,-920 462.8,-932 462.8,-932 462.8,-938 456.8,-944 450.8,-944"/>
<text xml:space="preserve" text-anchor="middle" x="362" y="-929.05" font-family="Times,serif" font-size="11.00">Embed Question</text>
<text xml:space="preserve" text-anchor="middle" x="362" y="-915.55" font-family="Times,serif" font-size="11.00">(OpenAI)</text>
</g>
<!-- InsertRels&#45;&gt;EmbedQ -->
<g id="edge26" class="edge">
<title>InsertRels&#45;&gt;EmbedQ</title>
<path fill="none" stroke="black" d="M362,-1021.08C362,-1003.57 362,-976.28 362,-955.59"/>
<polygon fill="black" stroke="black" points="365.5,-955.81 362,-945.81 358.5,-955.81 365.5,-955.81"/>
</g>
<!-- VectorSearch -->
<g id="node17" class="node">
<title>VectorSearch</title>
<path fill="none" stroke="black" d="M205.8,-835C205.8,-835 28.2,-835 28.2,-835 22.2,-835 16.2,-829 16.2,-823 16.2,-823 16.2,-811 16.2,-811 16.2,-805 22.2,-799 28.2,-799 28.2,-799 205.8,-799 205.8,-799 211.8,-799 217.8,-805 217.8,-811 217.8,-811 217.8,-823 217.8,-823 217.8,-829 211.8,-835 205.8,-835"/>
<text xml:space="preserve" text-anchor="middle" x="117" y="-813.3" font-family="Times,serif" font-size="11.00">Vector Search</text>
</g>
<!-- EmbedQ&#45;&gt;VectorSearch -->
<g id="edge13" class="edge">
<title>EmbedQ&#45;&gt;VectorSearch</title>
<path fill="none" stroke="black" d="M322.09,-907.57C279.82,-889.11 213,-859.93 167.19,-839.92"/>
<polygon fill="black" stroke="black" points="168.84,-836.82 158.28,-836.03 166.04,-843.24 168.84,-836.82"/>
</g>
<!-- FulltextSearch -->
<g id="node18" class="node">
<title>FulltextSearch</title>
<path fill="none" stroke="black" d="M450.8,-835C450.8,-835 273.2,-835 273.2,-835 267.2,-835 261.2,-829 261.2,-823 261.2,-823 261.2,-811 261.2,-811 261.2,-805 267.2,-799 273.2,-799 273.2,-799 450.8,-799 450.8,-799 456.8,-799 462.8,-805 462.8,-811 462.8,-811 462.8,-823 462.8,-823 462.8,-829 456.8,-835 450.8,-835"/>
<text xml:space="preserve" text-anchor="middle" x="362" y="-813.3" font-family="Times,serif" font-size="11.00">Fulltext Search</text>
</g>
<!-- EmbedQ&#45;&gt;FulltextSearch -->
<g id="edge14" class="edge">
<title>EmbedQ&#45;&gt;FulltextSearch</title>
<path fill="none" stroke="black" d="M362,-907.81C362,-891.27 362,-865.98 362,-846.44"/>
<polygon fill="black" stroke="black" points="365.5,-846.66 362,-836.66 358.5,-846.66 365.5,-846.66"/>
</g>
<!-- KGSearch -->
<g id="node19" class="node">
<title>KGSearch</title>
<path fill="none" stroke="black" d="M695.8,-835C695.8,-835 518.2,-835 518.2,-835 512.2,-835 506.2,-829 506.2,-823 506.2,-823 506.2,-811 506.2,-811 506.2,-805 512.2,-799 518.2,-799 518.2,-799 695.8,-799 695.8,-799 701.8,-799 707.8,-805 707.8,-811 707.8,-811 707.8,-823 707.8,-823 707.8,-829 701.8,-835 695.8,-835"/>
<text xml:space="preserve" text-anchor="middle" x="607" y="-813.3" font-family="Times,serif" font-size="11.00">KG Search</text>
</g>
<!-- EmbedQ&#45;&gt;KGSearch -->
<g id="edge15" class="edge">
<title>EmbedQ&#45;&gt;KGSearch</title>
<path fill="none" stroke="black" d="M401.91,-907.57C444.18,-889.11 511,-859.93 556.81,-839.92"/>
<polygon fill="black" stroke="black" points="557.96,-843.24 565.72,-836.03 555.16,-836.82 557.96,-843.24"/>
</g>
<!-- FuseResults -->
<g id="node20" class="node">
<title>FuseResults</title>
<path fill="none" stroke="black" d="M450.8,-726C450.8,-726 273.2,-726 273.2,-726 267.2,-726 261.2,-720 261.2,-714 261.2,-714 261.2,-702 261.2,-702 261.2,-696 267.2,-690 273.2,-690 273.2,-690 450.8,-690 450.8,-690 456.8,-690 462.8,-696 462.8,-702 462.8,-702 462.8,-714 462.8,-714 462.8,-720 456.8,-726 450.8,-726"/>
<text xml:space="preserve" text-anchor="middle" x="362" y="-711.05" font-family="Times,serif" font-size="11.00">Score Fusion</text>
<text xml:space="preserve" text-anchor="middle" x="362" y="-697.55" font-family="Times,serif" font-size="11.00">(Reciprocal Rank Fusion)</text>
</g>
<!-- VectorSearch&#45;&gt;FuseResults -->
<g id="edge16" class="edge">
<title>VectorSearch&#45;&gt;FuseResults</title>
<path fill="none" stroke="black" d="M156.91,-798.57C199.18,-780.11 266,-750.93 311.81,-730.92"/>
<polygon fill="black" stroke="black" points="312.96,-734.24 320.72,-727.03 310.16,-727.82 312.96,-734.24"/>
</g>
<!-- FulltextSearch&#45;&gt;FuseResults -->
<g id="edge17" class="edge">
<title>FulltextSearch&#45;&gt;FuseResults</title>
<path fill="none" stroke="black" d="M362,-798.81C362,-782.27 362,-756.98 362,-737.44"/>
<polygon fill="black" stroke="black" points="365.5,-737.66 362,-727.66 358.5,-737.66 365.5,-737.66"/>
</g>
<!-- KGSearch&#45;&gt;FuseResults -->
<g id="edge18" class="edge">
<title>KGSearch&#45;&gt;FuseResults</title>
<path fill="none" stroke="black" d="M567.09,-798.57C524.82,-780.11 458,-750.93 412.19,-730.92"/>
<polygon fill="black" stroke="black" points="413.84,-727.82 403.28,-727.03 411.04,-734.24 413.84,-727.82"/>
</g>
<!-- BuildContext -->
<g id="node21" class="node">
<title>BuildContext</title>
<path fill="none" stroke="black" d="M450.8,-617C450.8,-617 273.2,-617 273.2,-617 267.2,-617 261.2,-611 261.2,-605 261.2,-605 261.2,-593 261.2,-593 261.2,-587 267.2,-581 273.2,-581 273.2,-581 450.8,-581 450.8,-581 456.8,-581 462.8,-587 462.8,-593 462.8,-593 462.8,-605 462.8,-605 462.8,-611 456.8,-617 450.8,-617"/>
<text xml:space="preserve" text-anchor="middle" x="362" y="-595.3" font-family="Times,serif" font-size="11.00">Build Context Window</text>
</g>
<!-- FuseResults&#45;&gt;BuildContext -->
<g id="edge19" class="edge">
<title>FuseResults&#45;&gt;BuildContext</title>
<path fill="none" stroke="black" d="M362,-689.81C362,-673.27 362,-647.98 362,-628.44"/>
<polygon fill="black" stroke="black" points="365.5,-628.66 362,-618.66 358.5,-628.66 365.5,-628.66"/>
</g>
<!-- GenerateAnswer -->
<g id="node22" class="node">
<title>GenerateAnswer</title>
<path fill="none" stroke="black" d="M450.8,-508C450.8,-508 273.2,-508 273.2,-508 267.2,-508 261.2,-502 261.2,-496 261.2,-496 261.2,-484 261.2,-484 261.2,-478 267.2,-472 273.2,-472 273.2,-472 450.8,-472 450.8,-472 456.8,-472 462.8,-478 462.8,-484 462.8,-484 462.8,-496 462.8,-496 462.8,-502 456.8,-508 450.8,-508"/>
<text xml:space="preserve" text-anchor="middle" x="362" y="-493.05" font-family="Times,serif" font-size="11.00">Generate Answer</text>
<text xml:space="preserve" text-anchor="middle" x="362" y="-479.55" font-family="Times,serif" font-size="11.00">(LLM)</text>
</g>
<!-- BuildContext&#45;&gt;GenerateAnswer -->
<g id="edge20" class="edge">
<title>BuildContext&#45;&gt;GenerateAnswer</title>
<path fill="none" stroke="black" d="M362,-580.81C362,-564.27 362,-538.98 362,-519.44"/>
<polygon fill="black" stroke="black" points="365.5,-519.66 362,-509.66 358.5,-519.66 365.5,-519.66"/>
</g>
<!-- LoadEval -->
<g id="node23" class="node">
<title>LoadEval</title>
<path fill="none" stroke="black" d="M450.8,-379C450.8,-379 273.2,-379 273.2,-379 267.2,-379 261.2,-373 261.2,-367 261.2,-367 261.2,-355 261.2,-355 261.2,-349 267.2,-343 273.2,-343 273.2,-343 450.8,-343 450.8,-343 456.8,-343 462.8,-349 462.8,-355 462.8,-355 462.8,-367 462.8,-367 462.8,-373 456.8,-379 450.8,-379"/>
<text xml:space="preserve" text-anchor="middle" x="362" y="-357.3" font-family="Times,serif" font-size="11.00">Load Evaluation Dataset</text>
</g>
<!-- GenerateAnswer&#45;&gt;LoadEval -->
<g id="edge27" class="edge">
<title>GenerateAnswer&#45;&gt;LoadEval</title>
<path fill="none" stroke="black" stroke-dasharray="5,2" d="M362,-471.61C362,-450.71 362,-415.35 362,-390.45"/>
<polygon fill="black" stroke="black" points="365.5,-390.7 362,-380.7 358.5,-390.7 365.5,-390.7"/>
<text xml:space="preserve" text-anchor="middle" x="384.12" y="-422.7" font-family="Times,serif" font-size="14.00">optional</text>
</g>
<!-- RetrieveCtx -->
<g id="node24" class="node">
<title>RetrieveCtx</title>
<path fill="none" stroke="black" d="M450.8,-270C450.8,-270 273.2,-270 273.2,-270 267.2,-270 261.2,-264 261.2,-258 261.2,-258 261.2,-246 261.2,-246 261.2,-240 267.2,-234 273.2,-234 273.2,-234 450.8,-234 450.8,-234 456.8,-234 462.8,-240 462.8,-246 462.8,-246 462.8,-258 462.8,-258 462.8,-264 456.8,-270 450.8,-270"/>
<text xml:space="preserve" text-anchor="middle" x="362" y="-248.3" font-family="Times,serif" font-size="11.00">Rebuild Retrieval Context</text>
</g>
<!-- LoadEval&#45;&gt;RetrieveCtx -->
<g id="edge21" class="edge">
<title>LoadEval&#45;&gt;RetrieveCtx</title>
<path fill="none" stroke="black" d="M362,-342.81C362,-326.27 362,-300.98 362,-281.44"/>
<polygon fill="black" stroke="black" points="365.5,-281.66 362,-271.66 358.5,-281.66 365.5,-281.66"/>
</g>
<!-- CompareGT -->
<g id="node25" class="node">
<title>CompareGT</title>
<path fill="none" stroke="black" d="M450.8,-161C450.8,-161 273.2,-161 273.2,-161 267.2,-161 261.2,-155 261.2,-149 261.2,-149 261.2,-137 261.2,-137 261.2,-131 267.2,-125 273.2,-125 273.2,-125 450.8,-125 450.8,-125 456.8,-125 462.8,-131 462.8,-137 462.8,-137 462.8,-149 462.8,-149 462.8,-155 456.8,-161 450.8,-161"/>
<text xml:space="preserve" text-anchor="middle" x="362" y="-139.3" font-family="Times,serif" font-size="11.00">Compare to Ground Truth</text>
</g>
<!-- RetrieveCtx&#45;&gt;CompareGT -->
<g id="edge22" class="edge">
<title>RetrieveCtx&#45;&gt;CompareGT</title>
<path fill="none" stroke="black" d="M362,-233.81C362,-217.27 362,-191.98 362,-172.44"/>
<polygon fill="black" stroke="black" points="365.5,-172.66 362,-162.66 358.5,-172.66 365.5,-172.66"/>
</g>
<!-- ComputeMetrics -->
<g id="node26" class="node">
<title>ComputeMetrics</title>
<path fill="none" stroke="black" d="M450.8,-52C450.8,-52 273.2,-52 273.2,-52 267.2,-52 261.2,-46 261.2,-40 261.2,-40 261.2,-28 261.2,-28 261.2,-22 267.2,-16 273.2,-16 273.2,-16 450.8,-16 450.8,-16 456.8,-16 462.8,-22 462.8,-28 462.8,-28 462.8,-40 462.8,-40 462.8,-46 456.8,-52 450.8,-52"/>
<text xml:space="preserve" text-anchor="middle" x="362" y="-37.05" font-family="Times,serif" font-size="11.00">Compute Metrics</text>
<text xml:space="preserve" text-anchor="middle" x="362" y="-23.55" font-family="Times,serif" font-size="11.00">(Precision, Relevancy, Faithfulness)</text>
</g>
<!-- CompareGT&#45;&gt;ComputeMetrics -->
<g id="edge23" class="edge">
<title>CompareGT&#45;&gt;ComputeMetrics</title>
<path fill="none" stroke="black" d="M362,-124.81C362,-108.27 362,-82.98 362,-63.44"/>
<polygon fill="black" stroke="black" points="365.5,-63.66 362,-53.66 358.5,-63.66 365.5,-63.66"/>
</g>
</g>
</svg>
